#N canvas 350 53 1065 654 10;
#X obj 17 195 delay;
#X text 424 42 \$1 = strip led;
#X text 424 67 \$3 \, \$4 \, \$5 = RGB color;
#X obj 17 270 i \$3;
#X obj 77 270 i \$4;
#X obj 137 270 i \$5;
#X obj 44 168 f \$6;
#X obj 17 378 line;
#X obj 17 349 pack 0 0;
#X obj 77 378 line;
#X obj 77 349 pack 0 0;
#X obj 137 378 line;
#X obj 137 349 pack 0 0;
#X obj 297 320 t f f f;
#X obj 17 142 t b b;
#X text 424 54 \$2 = distance from origin;
#X obj 17 400 i;
#X obj 77 400 i;
#X obj 137 400 i;
#X obj 106 83 s colorRGB-\$1_\$0;
#X obj 175 61 s LEDIndex-\$1_\$0;
#X text 416 28 Arguments:;
#X obj 17 537 t a b;
#X obj 17 502 pack f f f;
#X obj 17 228 t b b b;
#X obj 647 484 metro;
#X obj 298 36 loadbang;
#X obj 298 58 s init_\$0;
#X obj 69 596 * 3;
#X obj 17 292 max 0;
#X obj 17 314 min 255;
#X obj 77 292 max 0;
#X obj 77 314 min 255;
#X obj 137 292 max 0;
#X obj 137 314 min 255;
#X obj 17 114 r write_\$0;
#X obj 647 314 r init_\$0;
#X obj 647 404 f \$7;
#X text 424 100 \$7 = ON-OFF (0-1);
#X obj 297 271 f \$6;
#X obj 297 220 r init_\$0;
#X obj 62 60 s messageRate_\$0;
#X obj 699 440 r messageRate_\$0;
#X obj 684 463 f \$6;
#X obj 307 245 r messageRate_\$0;
#X obj 18 80 s onOFF_\$0;
#X obj 717 260 r onOFF_\$0;
#X obj 647 336 t b b;
#X obj 297 293 - 5;
#X text 424 87 \$6 = write rate (ms);
#X obj 674 561 s write_\$0;
#X msg 845 365 const 0;
#X obj 430 450 list prepend b;
#X obj 430 476 list prepend /outputs/rgb/\$1;
#X obj 845 328 t b b;
#X obj 451 373 t b b;
#X obj 503 372 bng 15 250 50 0 empty empty empty 17 7 0 10 -262144
-1 -1;
#X msg 904 366 resize 900;
#X obj 480 395 f -1;
#X obj 451 351 r init_\$0;
#X obj 845 305 r init_\$0;
#X obj 451 396 f 3;
#X obj 845 400 array define strip-\$1;
#X obj 430 426 array get strip-\$1;
#X obj 647 506 t b b;
#X obj 430 321 r read_\$0;
#X obj 647 528 delay 1;
#X obj 89 200 r colorRGB-\$1_\$0;
#X obj 647 585 s read_\$0;
#X obj 17 618 array set strip-\$1;
#X obj 181 252 s LEDIndex-\$1_\$0;
#X obj 69 574 f \$2;
#X obj 182 421 r LEDIndex-\$1_\$0;
#X msg 848 496 const 0;
#X obj 848 459 t b b;
#X msg 907 497 resize 900;
#X obj 848 436 r init_\$0;
#X obj 848 531 array define clear-\$1;
#X obj 204 586 array get clear-\$1;
#X obj 204 565 t b b;
#X msg 327 586 0;
#X obj 17 422 change;
#X obj 77 422 change;
#X obj 137 422 change;
#X obj 77 444 t b f;
#X obj 17 444 t b f;
#X obj 17 466 f;
#X obj 137 444 t b f;
#X obj 182 446 t b f;
#X text 648 39 [bng] -> [s clear] to reset strip LED;
#X text 649 54 LED's index is 1-300;
#X text 633 23 Notes:;
#X text 651 97 OSC messages related to the LED to light up;
#X text 637 80 Output:;
#X obj 430 591 outlet;
#X obj 430 499 list prepend sendtyped;
#X obj 430 521 list trim;
#X obj 18 18 inlet;
#X obj 59 17 r stripLED-\$1;
#X obj 89 224 unpack f f f f;
#X floatatom 204 300 5 0 0 0 - - -, f 5;
#X obj 18 39 route status rate colorId;
#X obj 155 17 print stripLED-\$1;
#X obj 204 543 r clearAll;
#X obj 717 282 t f f;
#X obj 717 304 sel 0;
#X obj 717 347 t b b;
#X obj 744 374 s clear_\$0;
#X obj 214 513 r clear_\$0;
#X obj 717 399 s read_\$0;
#X obj 717 326 delay 5;
#X obj 430 545 t a a;
#X obj 457 569 s osc;
#X connect 0 0 24 0;
#X connect 3 0 29 0;
#X connect 4 0 31 0;
#X connect 5 0 33 0;
#X connect 6 0 0 1;
#X connect 7 0 16 0;
#X connect 8 0 7 0;
#X connect 9 0 17 0;
#X connect 10 0 9 0;
#X connect 11 0 18 0;
#X connect 12 0 11 0;
#X connect 13 0 8 1;
#X connect 13 1 10 1;
#X connect 13 2 12 1;
#X connect 14 0 0 0;
#X connect 14 1 6 0;
#X connect 16 0 81 0;
#X connect 17 0 82 0;
#X connect 18 0 83 0;
#X connect 22 0 69 0;
#X connect 22 1 71 0;
#X connect 23 0 22 0;
#X connect 24 0 3 0;
#X connect 24 1 4 0;
#X connect 24 2 5 0;
#X connect 25 0 64 0;
#X connect 26 0 27 0;
#X connect 28 0 69 1;
#X connect 29 0 30 0;
#X connect 30 0 8 0;
#X connect 31 0 32 0;
#X connect 32 0 10 0;
#X connect 33 0 34 0;
#X connect 34 0 12 0;
#X connect 35 0 14 0;
#X connect 36 0 47 0;
#X connect 37 0 25 0;
#X connect 39 0 48 0;
#X connect 40 0 39 0;
#X connect 42 0 43 0;
#X connect 43 0 25 1;
#X connect 44 0 39 0;
#X connect 46 0 104 0;
#X connect 47 0 37 0;
#X connect 47 1 43 0;
#X connect 48 0 13 0;
#X connect 51 0 62 0;
#X connect 52 0 53 0;
#X connect 53 0 95 0;
#X connect 54 0 51 0;
#X connect 54 1 57 0;
#X connect 55 0 61 0;
#X connect 55 1 58 0;
#X connect 56 0 55 0;
#X connect 57 0 62 0;
#X connect 58 0 63 1;
#X connect 59 0 55 0;
#X connect 60 0 54 0;
#X connect 61 0 63 0;
#X connect 63 0 52 0;
#X connect 64 0 66 0;
#X connect 64 1 50 0;
#X connect 65 0 63 0;
#X connect 66 0 68 0;
#X connect 67 0 99 0;
#X connect 71 0 28 0;
#X connect 72 0 88 0;
#X connect 73 0 77 0;
#X connect 74 0 73 0;
#X connect 74 1 75 0;
#X connect 75 0 77 0;
#X connect 76 0 74 0;
#X connect 78 0 69 0;
#X connect 79 0 78 0;
#X connect 79 1 80 0;
#X connect 80 0 69 1;
#X connect 81 0 85 0;
#X connect 82 0 84 0;
#X connect 83 0 87 0;
#X connect 84 0 86 0;
#X connect 84 1 23 1;
#X connect 85 0 86 0;
#X connect 85 1 86 1;
#X connect 86 0 23 0;
#X connect 87 0 86 0;
#X connect 87 1 23 2;
#X connect 88 0 86 0;
#X connect 88 1 71 1;
#X connect 95 0 96 0;
#X connect 96 0 111 0;
#X connect 97 0 101 0;
#X connect 97 0 102 0;
#X connect 98 0 101 0;
#X connect 98 0 102 0;
#X connect 99 0 3 1;
#X connect 99 1 4 1;
#X connect 99 2 5 0;
#X connect 99 2 100 0;
#X connect 99 3 70 0;
#X connect 101 0 45 0;
#X connect 101 1 41 0;
#X connect 101 2 19 0;
#X connect 101 3 20 0;
#X connect 103 0 79 0;
#X connect 104 0 105 0;
#X connect 104 1 37 0;
#X connect 105 0 110 0;
#X connect 106 0 109 0;
#X connect 106 1 107 0;
#X connect 108 0 79 0;
#X connect 110 0 106 0;
#X connect 111 0 94 0;
#X connect 111 1 112 0;
